HIERARCHY
ROOT Hips
{
	OFFSET 0.00000 0.00000 0.00000
	CHANNELS 6 Xposition Yposition Zposition Zrotation Yrotation Xrotation 
	JOINT LHipJoint
	{
		OFFSET 0 0 0
		CHANNELS 3 Zrotation Yrotation Xrotation
		JOINT LeftHip
		{
			OFFSET 1.30186 -1.90722 0.65024
			CHANNELS 3 Zrotation Yrotation Xrotation
			JOINT LeftKnee
			{
				OFFSET 2.56413 -7.04489 0.00000
				CHANNELS 3 Zrotation Yrotation Xrotation
				JOINT LeftAnkle
				{
					OFFSET 2.79321 -7.67428 0.00000
					CHANNELS 3 Zrotation Yrotation Xrotation
					JOINT LeftToe
					{
						OFFSET 0.15723 -0.43198 2.08537
						CHANNELS 3 Zrotation Yrotation Xrotation
						End Site
						{
							OFFSET 0.00000 -0.00000 1.07411
						}
					}
				}
			}
		}
	}
	JOINT RHipJoint
	{
		OFFSET 0 0 0
		CHANNELS 3 Zrotation Yrotation Xrotation
		JOINT RightHip
		{
			OFFSET -1.28627 -1.90723 0.65024
			CHANNELS 3 Zrotation Yrotation Xrotation
			JOINT RightKnee
			{
				OFFSET -2.56567 -7.04913 0.00000
				CHANNELS 3 Zrotation Yrotation Xrotation
				JOINT RightAnkle
				{
					OFFSET -2.75597 -7.57198 0.00000
					CHANNELS 3 Zrotation Yrotation Xrotation
					JOINT RightToe
					{
						OFFSET -0.17500 -0.48081 2.22901
						CHANNELS 3 Zrotation Yrotation Xrotation
						End Site
						{
							OFFSET -0.00000 -0.00000 1.14762
						}
					}
				}
			}
		}
	}
	JOINT lowerback
	{
		OFFSET 0 0 0
		CHANNELS 3 Zrotation Yrotation Xrotation
		JOINT Chest
		{
			OFFSET -0.04522 2.07467 -0.16566
			CHANNELS 3 Zrotation Yrotation Xrotation
			JOINT Chest2
			{
				OFFSET -0.01178 2.08825 -0.05393
				CHANNELS 3 Zrotation Yrotation Xrotation
				JOINT lowerneck
				{
					OFFSET 0 0 0
					CHANNELS 3 Zrotation Yrotation Xrotation
					JOINT Neck
					{
						OFFSET -0.05182 1.80489 0.16014
						CHANNELS 3 Zrotation Yrotation Xrotation
						JOINT Head
						{
							OFFSET 0.14739 1.78840 -0.33342
							CHANNELS 3 Zrotation Yrotation Xrotation
							End Site
							{
								OFFSET 0.04364 1.83899 -0.13460
							}
						}
					}
				}
				JOINT LeftCollar
				{
					OFFSET 0 0 0
					CHANNELS 3 Zrotation Yrotation Xrotation
					JOINT LeftShoulder
					{
						OFFSET 3.01264 1.29090 -0.06579
CHANNELS 3 Zrotation Xrotation Yrotation
						JOINT LeftElbow
						{
OFFSET 0 -5.556800 0.000000
CHANNELS 3 Zrotation Xrotation Yrotation
							JOINT LeftWrist
							{
OFFSET 0 -3.639790 -0.000000
CHANNELS 3 Zrotation Xrotation Yrotation
								JOINT lhand
								{
									OFFSET 0 0 0
CHANNELS 3 Zrotation Xrotation Yrotation
									JOINT LFingers
									{
OFFSET 0 -0.569420 -0.000000
CHANNELS 3 Zrotation Xrotation Yrotation
										End Site
										{
OFFSET 0 -0.459080 -0.000000
										}
									}
								}
								JOINT LThumb
								{
OFFSET 0 0.000000 0.000000
CHANNELS 3 Zrotation Xrotation Yrotation
									End Site
									{
OFFSET 0 -0.466090 0.466090
									}
								}
							}
						}
					}
				}
				JOINT RightCollar
				{
					OFFSET 0 0 0
					CHANNELS 3 Zrotation Yrotation Xrotation
					JOINT RightShoulder
					{
						OFFSET -3.15796 1.37283 -0.36748
CHANNELS 3 Zrotation Xrotation Yrotation
						JOINT RightElbow
						{
OFFSET 0 -5.343390 0.000000
CHANNELS 3 Zrotation Xrotation Yrotation
							JOINT RightWrist
							{
OFFSET 0 -3.651010 -0.000000
CHANNELS 3 Zrotation Xrotation Yrotation
								JOINT rhand
								{
									OFFSET 0 0 0
CHANNELS 3 Zrotation Xrotation Yrotation
									JOINT RFingers
									{
OFFSET 0 -0.694250 -0.000000
CHANNELS 3 Zrotation Xrotation Yrotation
										End Site
										{
OFFSET 0 -0.559720 -0.000000
										}
									}
								}
								JOINT RThumb
								{
OFFSET 0 0.000000 0.000000
CHANNELS 3 Zrotation Xrotation Yrotation
									End Site
									{
OFFSET 0 -0.568270 0.568270
									}
								}
							}
						}
					}
				}
			}
		}
	}
}
MOTION
Frames: 5
Frame Time: 0.008333333333333333
9.919700 18.165300 -15.786600 6.981800 76.731700 10.886600 0.000000 0.000000 0.000000 -18.569800 -13.310400 -2.101500 1.063000 6.554900 18.403100 0.834500 -2.828300 -16.537300 0.172700 -2.677300 -7.381500 0.000000 0.000000 0.000000 12.519600 15.658600 -4.384900 -1.535100 -7.822100 22.174900 -0.008900 -13.421800 -19.183700 -0.199800 -2.878500 7.940700 -6.733200 -0.985900 -4.264500 -2.007800 -0.889800 -0.003900 1.643500 -0.495300 2.464800 -17.358400 -19.235800 5.261300 18.820100 -29.278600 15.514000 5.814500 -14.172100 9.492800 -0.000000 0.000000 0.000000 1.573400 6.156600 -7.152600 16.246700 -25.854000 3.752900 25.492400 6.637300 -19.632300 0.000000 0.000000 0.000000 -7.125000 0.000000 0.000000 -2.909500 51.520700 0.467600 -0.000000 0.000000 0.000000 -8.942000 0.408700 3.321500 -13.622500 -22.192500 -2.683900 -13.344500 5.979800 -31.689400 0.000000 0.000000 0.000000 7.125000 0.000000 -0.000000 10.347200 -1.950100 10.869800
9.918277 18.169367 -15.784973 7.862529 76.700182 11.634887 0.000000 0.000000 0.000000 -18.830277 -13.384686 -1.898636 1.053579 6.526704 18.320477 0.835178 -2.716599 -16.563598 0.167820 -2.639140 -7.275628 0.000000 0.000000 0.000000 12.343915 15.706046 -4.268319 -1.541946 -7.838638 22.224989 0.005402 -13.589758 -19.251886 -0.186380 -2.779677 7.665989 -6.979240 -1.062355 -4.120062 -2.006987 -0.987877 0.069234 1.776009 -0.548507 2.472052 -17.434517 -19.169850 5.139297 18.826539 -29.165611 15.437883 5.835037 -14.119435 9.476940 0.000000 0.000000 0.000000 1.490980 6.050728 -7.031071 16.259171 -25.870809 3.758322 25.326408 6.193005 -19.402663 0.000000 0.000000 0.000000 -7.125000 0.000000 0.000000 -3.021269 51.244295 0.464753 0.000000 0.000000 0.000000 -9.081423 0.248605 3.602175 -13.583391 -22.136040 -2.669124 -13.273806 5.948350 -31.799271 0.000000 0.000000 0.000000 7.125000 0.000000 0.000000 10.396815 -2.047567 10.940969
9.917138 18.171193 -15.783987 8.441146 76.680506 12.129601 0.000000 0.000000 0.000000 -19.004594 -13.460822 -1.764507 1.047998 6.509993 18.271528 0.837776 -2.609877 -16.609419 0.171865 -2.669858 -7.360923 0.000000 0.000000 0.000000 12.223418 15.701113 -4.202943 -1.545662 -7.847638 22.252249 0.014405 -13.689833 -19.287038 -0.177795 -2.716023 7.489102 -7.146659 -1.209645 -4.006311 -1.934628 -1.185627 0.129212 1.931916 -0.651639 2.492320 -17.719081 -19.032925 4.903681 18.849869 -28.962800 15.438504 5.888538 -14.024313 9.525121 0.000000 0.000000 0.000000 1.264367 5.950653 -6.674638 16.271252 -25.887050 3.763603 25.236868 5.948374 -19.312275 0.000000 0.000000 0.000000 -7.125000 0.000000 0.000000 -3.089548 51.131213 0.467063 0.000000 0.000000 0.000000 -9.313299 0.022582 3.987929 -13.541438 -22.075383 -2.653317 -13.166806 6.057822 -31.886846 0.000000 0.000000 0.000000 7.125000 0.000000 0.000000 10.464920 -2.117440 11.027499
9.916263 18.170977 -15.783660 8.728646 76.673265 12.378829 0.000000 0.000000 0.000000 -19.095295 -13.537131 -1.694791 1.045843 6.503529 18.252621 0.841773 -2.514092 -16.668247 0.182672 -2.752781 -7.591101 0.000000 0.000000 0.000000 12.158009 15.655494 -4.182379 -1.546607 -7.849954 22.259271 0.018163 -13.726443 -19.294718 -0.174655 -2.692121 7.422766 -7.236417 -1.413401 -3.922780 -1.801936 -1.463366 0.176566 2.101459 -0.794713 2.523868 -18.178723 -18.838385 4.577596 18.892253 -28.688804 15.503894 5.970982 -13.895520 9.628083 0.000000 0.000000 0.000000 0.922453 5.857258 -6.135747 16.282450 -25.902070 3.768520 25.218819 5.893733 -19.356667 0.000000 0.000000 0.000000 -7.125000 0.000000 0.000000 -3.118299 51.175756 0.474778 0.000000 0.000000 0.000000 -9.617203 -0.255020 4.447697 -13.498058 -22.012591 -2.637009 -13.028678 6.290582 -31.962192 0.000000 0.000000 0.000000 7.125000 0.000000 0.000000 10.549480 -2.170441 11.129097
9.915518 18.170502 -15.784880 8.680861 76.698954 12.324605 0.000000 0.000000 0.000000 -19.078960 -13.584441 -1.666188 1.042657 6.493972 18.224628 0.839197 -2.542356 -16.636730 0.167896 -2.638708 -7.274434 0.000000 0.000000 0.000000 12.190679 15.740625 -4.131206 -1.548776 -7.855105 22.274928 0.013351 -13.725291 -19.349890 -0.192006 -2.820427 7.779355 -7.202256 -1.468235 -3.885840 -1.755982 -1.541855 0.210388 2.124978 -0.835584 2.545558 -18.372030 -18.773113 4.492262 19.007004 -28.611738 15.477393 6.035576 -13.859394 9.668344 0.000000 0.000000 0.000000 0.876837 5.791444 -6.183396 16.283467 -25.903493 3.768927 25.243558 6.014178 -19.567123 0.000000 0.000000 0.000000 -7.125000 0.000000 0.000000 -3.144665 51.406274 0.496671 0.000000 0.000000 0.000000 -9.694404 -0.375193 4.498397 -13.476911 -21.981954 -2.629079 -12.924704 6.438410 -32.191423 0.000000 0.000000 0.000000 7.125000 0.000000 0.000000 10.628240 -2.380354 11.252862
